<?xml version="1.0" standalone="no"?>
<!DOCTYPE svg PUBLIC "-//W3C//DTD SVG 20010904//EN"
 "http://www.w3.org/TR/2001/REC-SVG-20010904/DTD/svg10.dtd">
<svg version="1.0" xmlns="http://www.w3.org/2000/svg"
 width="192.000000pt" height="192.000000pt" viewBox="0 0 192.000000 192.000000"
 preserveAspectRatio="xMidYMid meet">

<g transform="translate(0.000000,192.000000) scale(0.100000,-0.100000)"
fill="#000000" stroke="none">
<path d="M543 1271 c-51 -13 -83 -39 -104 -84 -16 -36 -19 -67 -19 -223 0
-169 1 -184 23 -224 30 -58 74 -80 157 -80 112 0 169 60 170 178 l0 52 -60 0
-60 0 0 -44 c0 -79 -23 -111 -69 -99 -35 9 -43 63 -39 247 3 152 5 169 22 182
46 33 86 -2 86 -76 l0 -50 60 0 60 0 0 52 c0 63 -31 133 -69 152 -34 18 -118
27 -158 17z"/>
<path d="M925 1248 c-2 -7 -27 -130 -55 -273 -28 -143 -54 -270 -57 -282 -5
-22 -2 -23 55 -23 l60 0 6 38 c17 98 13 92 66 92 49 0 49 0 55 -37 17 -101 10
-93 74 -93 l58 0 -48 243 c-27 133 -54 266 -60 295 l-10 52 -70 0 c-47 0 -71
-4 -74 -12z m91 -240 c7 -40 13 -85 13 -100 1 -26 -2 -28 -35 -28 -25 0 -35 4
-31 13 3 7 11 54 18 105 7 50 15 90 17 87 3 -3 11 -37 18 -77z"/>
<path d="M1172 1218 l3 -43 48 -3 47 -3 0 -250 0 -249 65 0 65 0 0 250 0 250
45 0 45 0 0 45 0 45 -161 0 -160 0 3 -42z"/>
</g>
</svg>
