<?xml version="1.0" standalone="no"?>
<!DOCTYPE svg PUBLIC "-//W3C//DTD SVG 20010904//EN"
  "http://www.w3.org/TR/2001/REC-SVG-20010904/DTD/svg10.dtd">
<svg version="1.0" xmlns="http://www.w3.org/2000/svg"
  width="512.000000pt" height="512.000000pt" viewBox="0 0 512.000000 512.000000"
  preserveAspectRatio="xMidYMid meet">

<g transform="translate(0.000000,512.000000) scale(0.100000,-0.100000)"
fill="#000000" stroke="none">
<path d="M1428 3384 c-123 -29 -193 -83 -246 -190 -67 -134 -67 -134 -67 -619
l0 -440 27 -75 c71 -201 161 -275 366 -303 108 -14 252 3 332 39 143 65 210
207 210 447 l0 117 -159 0 -158 0 -6 -127 c-7 -197 -36 -249 -138 -247 -65 1
-99 26 -121 90 -16 44 -17 96 -15 519 2 512 1 506 60 549 61 45 162 20 196
-50 10 -19 16 -75 19 -161 l5 -133 158 0 159 0 0 129 c0 155 -19 227 -83 323
-35 53 -53 68 -107 96 -36 18 -89 37 -119 42 -76 14 -245 11 -313 -6z"/>
<path d="M2317 2588 c-86 -431 -157 -786 -157 -791 0 -4 71 -6 157 -5 l157 3
31 170 30 170 124 3 c69 1 128 -1 133 -6 4 -4 20 -83 35 -175 l26 -167 154 0
c117 0 153 3 153 13 0 7 -70 361 -155 787 -85 426 -155 776 -155 777 0 2 -84
3 -188 3 l-187 0 -158 -782z m398 59 c25 -158 45 -295 45 -302 0 -12 -19 -15
-95 -15 -87 0 -95 2 -95 19 0 11 20 149 45 308 25 158 45 290 46 293 2 16 13
-43 54 -303z"/>
<path d="M3130 3250 l0 -120 130 0 130 0 0 -670 0 -670 165 0 165 0 0 670 0
670 125 0 125 0 0 120 0 120 -420 0 -420 0 0 -120z"/>
</g>
</svg>
