<svg xmlns="http://www.w3.org/2000/svg">
<style>:root svg:not(:target) {display: none} </style>

<svg id="navigation_menu_close" viewBox="0 0 20 20">
<line y1="-0.75" x2="24.7577" y2="-0.75" transform="matrix(0.686589 -0.727046 0.686589 0.727046 2.00171 20)" stroke="black" stroke-width="1.5"/>
<line y1="-0.75" x2="24.7577" y2="-0.75" transform="matrix(0.686589 0.727046 -0.686589 0.727046 1 2)" stroke="black" stroke-width="1.5"/>
</svg>

<svg id="navigation_menu_open" viewBox="0 0 24 24">
<line y1="3" x2="24" y2="3" stroke="black" stroke-width="2"/>
<line y1="11" x2="24" y2="11" stroke="black" stroke-width="2"/>
<line y1="19" x2="24" y2="19" stroke="black" stroke-width="2"/>
</svg>

<svg id="cat_slim" viewBox="0 0 50 53">
<circle cx="25" cy="28" r="25" fill="#68B738"/>
<g clip-path="url(#clip0_94_6)">
<path d="M35.2034 0H35.008C34.6778 0.187081 34.415 0.473924 34.2571 0.819588C33.968 1.37738 33.7453 1.96735 33.5937 2.57732C33.5612 2.76073 33.4688 2.92811 33.331 3.05315C33.1932 3.17818 33.0179 3.25377 32.8326 3.26804C32.2658 3.36597 31.7288 3.59243 31.2626 3.93012C30.7965 4.26781 30.4135 4.7078 30.1429 5.21649C29.7708 5.87697 29.4526 6.5665 29.1914 7.27835C28.4611 9.17526 27.9006 11.134 27.2114 13.0464C26.8874 13.9175 26.872 13.9175 25.8949 13.9175C24.7274 13.9175 24.8097 13.7371 24.7943 15.0258C24.7943 15.433 24.9177 15.6392 25.3497 15.6186C25.4834 15.6186 25.684 15.5515 25.7354 15.7268C25.7869 15.9021 25.612 15.9794 25.5091 16.0825C24.8994 16.7029 24.1276 17.1388 23.2823 17.3402C22.3051 17.6031 21.3074 17.8093 20.356 18.1289C17.9131 18.9485 15.6554 20.0928 13.8966 22.0309C12.8681 23.2347 12.0445 24.6001 11.4589 26.0722C9.57143 30.5258 8.656 35.2165 7.94629 39.9536C7.612 42.1753 7.37543 44.4072 7.19543 46.6546C7.10286 47.7577 7 48.8763 7 50H24.1411C24.1696 49.7731 24.1283 49.5429 24.0229 49.3402C23.858 48.9289 23.5901 48.5672 23.2451 48.29C22.9 48.0128 22.4895 47.8295 22.0531 47.7577C21.6931 47.6753 21.652 47.567 21.8731 47.2835C22.2338 46.801 22.5103 46.2607 22.6909 45.6856C23.5291 43.2062 23.8531 40.6186 24.2594 38.0567C24.4889 36.0999 25.0894 34.2051 26.0286 32.4742C26.7611 31.2002 27.7382 30.0842 28.9034 29.1907C29.3303 28.866 29.3457 28.866 29.4177 29.4175C29.4691 29.7835 29.4794 30.1598 29.5051 30.5309C29.6595 32.9662 29.6285 35.4097 29.4126 37.8402C29.2184 39.7242 29.1926 41.6217 29.3354 43.5103C29.5399 45.7029 29.9304 47.8739 30.5029 50H37.3429C37.2536 49.442 36.9973 48.9243 36.6078 48.5156C36.2184 48.1069 35.7143 47.8264 35.1623 47.7113C34.5177 47.6087 33.8587 47.6438 33.2286 47.8144C32.92 47.8866 32.7914 47.8144 32.7657 47.4794C32.5529 44.7505 32.7261 42.0051 33.28 39.3247C33.966 36.2304 34.4912 33.1025 34.8537 29.9536C34.9887 28.6819 35.3881 27.4528 36.0263 26.3454C36.6383 25.2526 37.1731 24.1186 37.7749 23.0206C38.0138 22.6214 38.1575 22.1723 38.195 21.7083C38.2325 21.2443 38.1626 20.7779 37.9909 20.3454C37.852 19.9794 37.7183 19.6082 37.5486 19.2577C37.0343 18.2526 36.52 17.2577 36.0469 16.2423C35.7949 15.7268 35.8514 15.6649 36.412 15.6495C37.2503 15.6495 37.2503 15.6495 37.2657 14.8041C37.2657 14.6907 37.2657 14.5773 37.2657 14.4639C37.2657 14.1082 37.132 13.9124 36.7514 13.9485C36.4943 13.9485 36.2371 13.9485 35.9697 13.9485C35.6149 13.9485 35.512 13.799 35.5994 13.433C35.7729 12.838 36.1142 12.306 36.5823 11.9009C37.0503 11.4958 37.6252 11.2349 38.2377 11.1495C39.3772 11.0505 40.5251 11.1252 41.6423 11.3711C41.7712 11.4118 41.9109 11.4001 42.0312 11.3383C42.1515 11.2766 42.2427 11.1699 42.2851 11.0412C42.4909 10.5258 42.7171 10.0103 42.9486 9.49484C43.001 9.40339 43.0242 9.29801 43.015 9.19293C43.0058 9.08785 42.9647 8.98812 42.8971 8.90722C41.2514 6.81443 39.4669 4.86082 37.0343 3.60825C36.9168 3.55754 36.8138 3.47814 36.7347 3.3773C36.6557 3.27646 36.6031 3.15738 36.5817 3.03093C36.444 2.29408 36.225 1.57487 35.9286 0.886598C35.7895 0.519904 35.5349 0.20865 35.2034 0V0Z" fill="black"/>
</g>
<defs>
<clipPath id="clip0_94_6">
<rect width="36" height="50" fill="white" transform="translate(7)"/>
</clipPath>
</defs>
</svg>

<svg id="cat_weight" viewBox="0 0 268 200">
<circle cx="134" cy="100" r="100" fill="#68B738"/>
<g clip-path="url(#clip0_2403_774)">
<path d="M246.236 55.5137C248.545 51.8399 251.614 48.7029 255.236 46.3137C257.236 44.9137 258.436 44.9137 259.636 47.5137C261.236 51.3137 262.636 55.3137 261.436 59.5137C261.218 60.226 261.177 60.9809 261.316 61.7128C261.456 62.4447 261.772 63.1315 262.236 63.7137C263.436 65.3137 264.436 66.9137 265.436 68.3137C266.797 70.0412 267.68 72.0963 267.996 74.2728C268.312 76.4492 268.05 78.6705 267.236 80.7137C266.502 82.6973 266.363 84.8522 266.836 86.9137C267.236 88.8937 267.236 90.9337 266.836 92.9137C266.675 94.3965 266.075 95.7975 265.113 96.9375C264.151 98.0775 262.871 98.9048 261.436 99.3137C258.878 99.8005 256.595 101.227 255.036 103.314C254.848 103.621 254.583 103.874 254.267 104.049C253.952 104.225 253.597 104.316 253.236 104.314C250.836 104.714 244.836 99.3137 244.836 96.9137V95.7137C245.036 88.5137 244.636 87.9137 238.036 84.9137C236.655 84.4265 235.417 83.6015 234.436 82.5137C233.236 80.9137 231.636 81.1137 229.836 81.7137C228.036 82.3137 227.036 83.5137 227.236 85.5137C227.84 90.3554 228.04 95.2388 227.836 100.114C227.85 100.67 227.986 101.217 228.236 101.714C234.436 110.714 236.836 121.314 239.836 131.514C242.236 139.314 246.636 143.514 254.636 144.114C255.917 144.216 257.187 144.416 258.436 144.714C260.08 144.978 261.607 145.729 262.819 146.87C264.031 148.011 264.873 149.489 265.236 151.114C266.636 155.314 265.836 156.314 261.636 156.314H248.636C246.953 156.399 245.303 155.825 244.036 154.714C242.012 153.005 239.713 151.653 237.236 150.714C234.499 149.703 232.129 147.891 230.436 145.514C228.094 142.241 225.412 139.224 222.436 136.514C216.836 130.714 210.836 125.114 205.636 119.114C201.678 115.025 199.395 109.602 199.236 103.914C199.236 102.114 198.836 101.314 196.836 102.114C196.238 102.494 195.546 102.701 194.836 102.714C189.236 102.714 186.436 106.114 184.436 111.114C182.636 115.314 180.236 119.314 178.036 123.514C176.789 126.143 176.108 129.005 176.036 131.914C176.036 136.714 177.236 138.314 181.636 139.914C184.436 140.914 187.036 141.914 188.436 144.714C190.036 147.914 189.636 148.714 186.236 148.914H172.636C171.852 148.991 171.064 148.821 170.382 148.426C169.7 148.031 169.16 147.432 168.836 146.714L165.236 140.714C164.175 139.148 163.496 137.356 163.253 135.48C163.01 133.605 163.21 131.698 163.836 129.914C164.702 126.441 164.77 122.817 164.036 119.314C163.532 116.874 163.576 114.353 164.164 111.932C164.752 109.511 165.869 107.25 167.436 105.314C168.636 103.914 168.636 103.314 166.636 102.914C158.458 101.176 150.53 98.4217 143.036 94.7137C142.983 94.7137 142.933 94.6926 142.895 94.6551C142.858 94.6176 142.836 94.5667 142.836 94.5137C136.436 92.1137 135.236 92.5137 133.436 99.1137C131.836 104.714 130.236 110.314 129.036 116.114C127.636 122.514 129.236 128.514 131.236 134.514C132.036 136.914 134.436 136.714 136.236 137.314C140.236 138.514 143.636 140.114 145.236 144.314C146.636 147.514 146.436 147.914 143.036 147.914C139.636 147.914 136.236 147.714 132.636 147.914C129.599 147.969 126.634 146.98 124.236 145.114C114.636 138.714 111.836 128.914 111.036 118.314C110.636 111.714 107.036 106.514 102.836 101.514C102.036 100.514 101.236 100.114 100.036 100.914C95.7434 103.281 91.2614 105.288 86.6365 106.914C76.985 110.322 68.5157 116.431 62.2365 124.514C59.8918 127.464 58.3732 130.984 57.8365 134.714C57.2365 138.314 58.2365 139.914 61.8365 140.914C65.4365 141.914 67.2365 143.914 67.6365 147.714C67.8365 149.314 67.2365 150.114 65.6365 150.114H49.4365C48.9063 150.076 48.393 149.911 47.9403 149.632C47.4876 149.354 47.1089 148.97 46.8365 148.514C44.3242 145.403 42.9798 141.512 43.0365 137.514C42.9315 130.604 43.5346 123.701 44.8365 116.914C45.1034 114.881 45.8623 112.944 47.0473 111.271C48.2323 109.598 49.8075 108.24 51.6365 107.314C63.4365 101.714 69.6365 91.1137 75.2365 80.1137C76.4365 77.9137 75.4365 77.5137 73.4365 77.7137C67.8391 78.4908 62.5358 80.6947 58.0365 84.1137C52.1448 88.4114 46.5949 93.1589 41.4365 98.3137C35.9358 103.901 28.6418 107.371 20.8365 108.114C6.23646 108.914 -0.56354 100.714 0.0364599 87.5137C0.170585 83.0129 1.86775 78.6993 4.83646 75.3137C5.8685 73.9757 7.27593 72.9757 8.87899 72.4413C10.4821 71.907 12.208 71.8625 13.8365 72.3137C16.8365 73.1137 17.6365 74.7137 16.4365 77.7137C15.8365 78.9137 15.0365 79.9137 14.4365 81.1137C13.5737 82.3396 12.8995 83.6879 12.4365 85.1137C10.2365 91.1137 13.2365 95.3137 19.4365 95.9137C26.0365 96.5137 31.4365 93.7137 36.4365 89.7137C42.4603 84.8902 47.8379 79.311 52.4365 73.1137C55.875 68.5885 60.2046 64.8163 65.1581 62.03C70.1116 59.2436 75.5837 57.5024 81.2365 56.9137C85.8365 56.3137 89.8365 54.3137 94.2365 53.1137C102.465 50.6049 111.034 49.3904 119.636 49.5137C123.621 49.6796 127.59 48.9269 131.236 47.3137C141.036 43.3137 151.236 43.3137 161.436 45.3137C169.436 46.9137 177.436 48.9137 185.236 50.9137C189.878 51.7787 194.651 51.6423 199.236 50.5137C208.014 48.2888 216.992 46.9488 226.036 46.5137C231.961 46.2254 237.867 47.3928 243.236 49.9137C247.236 51.7137 247.236 51.7137 246.236 55.5137Z" fill="black"/>
</g>
<defs>
<clipPath id="clip0_2403_774">
<rect width="268" height="112" fill="white" transform="translate(0 44)"/>
</clipPath>
</defs>
</svg>

<svg id="icon_arrow_small" viewBox="0 0 24 12">
<line y1="6" x2="18" y2="6" stroke="black" stroke-width="2"/>
<path d="M24 6L17.25 11.1962L17.25 0.803848L24 6Z" fill="black"/>
</svg>

<svg id="icon_arrow_large" viewBox="0 0 32 12">
<line y1="6" x2="26" y2="6" stroke="black" stroke-width="2"/>
<path d="M32 6L25.25 11.1962L25.25 0.803848L32 6Z" fill="black"/>
</svg>

<svg id="advantages_meals" viewBox="0 0 26 30">
<path fill-rule="evenodd" clip-rule="evenodd" d="M19.1173 0.0761497C19.491 -0.0786313 19.9211 0.00692445 20.2071 0.292922C21.1156 1.20142 22.3038 3.17065 23.2659 6.21082C24.2373 9.28039 25 13.5081 25 19C25 19.5523 24.5523 20 24 20H20.5V29C20.5 29.5523 20.0523 30 19.5 30C18.9477 30 18.5 29.5523 18.5 29V1.00003C18.5 0.595567 18.7436 0.230931 19.1173 0.0761497ZM20.5 18H22.9912C22.9053 13.1836 22.2051 9.48755 21.3591 6.81424C21.0807 5.93457 20.7885 5.1715 20.5 4.51895V18Z" fill="white"/>
<path fill-rule="evenodd" clip-rule="evenodd" d="M6.5 0C7.05228 0 7.5 0.447715 7.5 1V29C7.5 29.5523 7.05228 30 6.5 30C5.94772 30 5.5 29.5523 5.5 29V1C5.5 0.447715 5.94772 0 6.5 0Z" fill="white"/>
<path fill-rule="evenodd" clip-rule="evenodd" d="M2 0C2.55228 0 3 0.447715 3 1V6.5C3 7.05686 3.19203 7.81518 3.70088 8.41656C4.18001 8.98281 5.01446 9.5 6.49993 9.5C7.05221 9.5 7.49993 9.94771 7.49993 10.5C7.49993 11.0523 7.05221 11.5 6.49993 11.5C4.48547 11.5 3.06995 10.7672 2.1741 9.70844C1.30797 8.68482 1 7.44314 1 6.5V1C1 0.447715 1.44772 0 2 0Z" fill="white"/>
<path fill-rule="evenodd" clip-rule="evenodd" d="M11 0C10.4477 0 10 0.447715 10 1V6.5C10 7.05686 9.80797 7.81518 9.29912 8.41656C8.81999 8.98281 7.9854 9.5 6.49993 9.5C5.94765 9.5 5.50007 9.94771 5.50007 10.5C5.50007 11.0523 5.94765 11.5 6.49993 11.5C8.51439 11.5 9.93005 10.7672 10.8259 9.70844C11.692 8.68482 12 7.44314 12 6.5V1C12 0.447715 11.5523 0 11 0Z" fill="white"/>
</svg>

<svg id="advantages_powder" viewBox="0 0 27 29">
<path d="M11.375 0C9.74375 0 8.475 1.35937 8.475 3.08125C8.475 4.80312 9.74375 6.1625 11.375 6.1625C13.0063 6.1625 14.275 4.80312 14.275 3.08125C14.275 1.35937 13.0063 0 11.375 0ZM11.375 1.17812C12.3719 1.17812 13.0969 2.02094 13.0969 3.08125C13.0969 4.07812 12.3084 4.98438 11.375 4.98438C10.3781 4.98438 9.65313 4.14156 9.65313 3.08125C9.65313 2.08437 10.4325 1.17812 11.375 1.17812ZM0.5 24.7406C0.5 25.9188 0.907813 26.9156 1.85938 27.7313C2.85625 28.5831 4.03438 28.5106 4.03438 28.5106H23.0656C23.845 28.5106 24.8781 28.13 25.6937 27.0606C26.5366 26.0638 26.4822 24.7044 26.4822 24.7044V7.48563C26.4822 7.05063 26.3734 6.8875 25.7391 6.8875C25.1047 6.8875 25.0503 7.15938 25.0503 7.47656V24.6953C25.0322 24.9944 24.9778 25.7828 24.3072 26.4172C23.5731 27.0425 22.8572 26.9609 22.8572 26.9609C22.8572 26.9609 4.73219 26.9609 3.82594 26.9338C3.48156 26.8703 2.91969 26.7434 2.37594 26.0275C1.86844 25.3025 1.96812 24.3962 1.96812 24.3962V7.1775C1.96812 6.71531 1.7325 6.54313 1.24313 6.54313C0.75375 6.54313 0.5 6.71531 0.5 7.12313V24.7406ZM16.8125 8.42813C15.725 8.66375 14.6375 8.80875 12.5531 10.7844C10.4688 12.7781 8.92813 12.6875 7.3875 12.5969C5.84688 12.5063 4.21563 11.0563 3.94375 10.6938C3.60844 10.3403 3.0375 10.5759 2.85625 10.8116C2.70219 11.0472 2.70219 11.455 2.965 11.8084C4.23375 12.9866 5.41188 13.8928 7.6775 14.0741C9.94312 14.2916 12.1181 13.2675 13.5681 11.8084C15.0181 10.3584 15.7431 10.0866 16.8306 9.90531C19.4587 9.48844 20.9994 10.5216 21.9056 11.1741C22.9025 12.2616 23.1744 11.9534 23.4462 11.6453C23.99 10.9294 23.2197 10.3766 22.3588 9.74219C20.5463 8.56406 18.8244 8.11094 16.8306 8.47344L16.8125 8.42813ZM7.75 15.5875C6.57188 15.5875 5.66562 16.5844 5.66562 17.8531C5.66562 19.1219 6.57188 20.1188 7.75 20.1188C8.92813 20.1188 9.83438 19.1219 9.83438 17.8531C9.83438 16.5844 8.92813 15.5875 7.75 15.5875ZM19.5312 16.3669C17.9906 16.3669 16.7219 17.7262 16.7219 19.3575C16.7219 20.9888 17.9906 22.3481 19.5312 22.3481C21.0719 22.3481 22.3406 20.9888 22.3406 19.3575C22.3406 17.7262 21.0719 16.3669 19.5312 16.3669ZM19.5312 17.8169C20.3288 17.8169 20.9813 18.5147 20.9813 19.3575C20.9813 20.2184 20.3288 20.8981 19.5312 20.8981C18.7337 20.8981 18.0812 20.2003 18.0812 19.3575C18.0812 18.4966 18.7337 17.8169 19.5312 17.8169Z" fill="white"/>
</svg>

<svg id="advantages_result" viewBox="0 0 27 31">
<path d="M6.12057 0C5.0538 0 5.0538 1.5831 6.12057 1.5831H12.7878V3.18731C5.96055 3.62002 0.562721 9.41417 0.562721 16.4854C0.562721 20.4959 2.31222 24.1159 5.07514 26.5539C5.55518 26.976 5.61919 27.7254 5.18181 28.1897L3.64567 29.7412C2.89894 30.4272 4.00837 31.4931 4.68043 30.7438L6.68595 28.7069C7.03798 28.3692 7.5607 28.2847 7.99807 28.4958C9.72279 29.3397 11.6191 29.784 13.5432 29.795C15.4673 29.8059 17.3687 29.3833 19.1031 28.5591C19.5298 28.348 20.0632 28.4325 20.4045 28.7702L22.3461 30.7438C23.0288 31.377 24.0102 30.4272 23.3915 29.7412L21.9407 28.2636C21.4926 27.8098 21.5567 27.0605 22.0474 26.6277C23.5031 25.3585 24.6674 23.7959 25.4623 22.0447C26.2571 20.2936 26.6641 18.3944 26.6558 16.4748C26.6558 9.40362 21.226 3.59891 14.388 3.18731V1.5831H21.0553C22.122 1.5831 22.122 0 21.0553 0H6.12057ZM2.00285 16.4748C2.00285 9.94187 7.198 4.65431 13.6093 4.65431C20.0098 4.65431 25.205 9.94187 25.205 16.4748C25.205 23.0183 20.0098 28.3164 13.6093 28.3164C7.20867 28.3164 2.00285 23.0183 2.00285 16.4748ZM12.7985 8.37988C12.7985 7.28226 14.4627 7.28226 14.4627 8.37988V17.0131C14.4627 17.237 14.3728 17.4517 14.2127 17.6101C14.0527 17.7684 13.8356 17.8574 13.6093 17.8574C13.3961 17.8574 13.1915 17.7743 13.0397 17.6262C12.888 17.478 12.8013 17.2767 12.7985 17.0658V8.37988ZM7.80605 10.9973C8.11444 10.9973 8.4102 10.8761 8.62826 10.6603C8.84632 10.4446 8.96883 10.152 8.96883 9.84688C8.96883 9.54178 8.84632 9.24918 8.62826 9.03344C8.4102 8.8177 8.11444 8.6965 7.80605 8.6965C7.51825 8.72386 7.25108 8.85633 7.05666 9.06805C6.86224 9.27977 6.75453 9.55556 6.75453 9.84161C6.75453 10.1277 6.86224 10.4034 7.05666 10.6152C7.25108 10.8269 7.51825 10.9593 7.80605 10.9867V10.9973ZM19.4018 10.9973C19.7102 10.9973 20.0059 10.8761 20.224 10.6603C20.4421 10.4446 20.5646 10.152 20.5646 9.84688C20.5646 9.54178 20.4421 9.24918 20.224 9.03344C20.0059 8.8177 19.7102 8.6965 19.4018 8.6965C19.114 8.72386 18.8468 8.85633 18.6524 9.06805C18.458 9.27977 18.3503 9.55556 18.3503 9.84161C18.3503 10.1277 18.458 10.4034 18.6524 10.6152C18.8468 10.8269 19.114 10.9593 19.4018 10.9867V10.9973ZM8.96883 23.5882C8.96883 25.1185 6.64328 25.1185 6.64328 23.5882C6.64328 22.0579 8.96883 22.0579 8.96883 23.5882ZM13.6093 27.0288C13.7706 27.0441 13.9334 27.0259 14.0872 26.9754C14.241 26.9248 14.3824 26.843 14.5024 26.7352C14.6223 26.6273 14.7182 26.4959 14.7838 26.3493C14.8494 26.2026 14.8833 26.044 14.8833 25.8837C14.8833 25.7233 14.8494 25.5648 14.7838 25.4181C14.7182 25.2715 14.6223 25.14 14.5024 25.0322C14.3824 24.9244 14.241 24.8426 14.0872 24.792C13.9334 24.7414 13.7706 24.7232 13.6093 24.7386C13.3215 24.7659 13.0543 24.8984 12.8599 25.1101C12.6654 25.3219 12.5577 25.5976 12.5577 25.8837C12.5577 26.1697 12.6654 26.4455 12.8599 26.6572C13.0543 26.869 13.3215 27.0014 13.6093 27.0288ZM5.49117 16.6437C5.50668 16.8033 5.48829 16.9643 5.43717 17.1165C5.38606 17.2687 5.30336 17.4086 5.19437 17.5273C5.08539 17.646 4.95252 17.7408 4.80431 17.8057C4.6561 17.8706 4.49581 17.9041 4.33373 17.9041C4.17166 17.9041 4.01137 17.8706 3.86316 17.8057C3.71494 17.7408 3.58208 17.646 3.4731 17.5273C3.36411 17.4086 3.28141 17.2687 3.23029 17.1165C3.17918 16.9643 3.16079 16.8033 3.17629 16.6437C3.20396 16.3589 3.33785 16.0946 3.55185 15.9023C3.76585 15.7099 4.04461 15.6033 4.33373 15.6033C4.62286 15.6033 4.90162 15.7099 5.11562 15.9023C5.32962 16.0946 5.46351 16.3589 5.49117 16.6437ZM22.8794 17.794C23.0408 17.8094 23.2036 17.7912 23.3574 17.7406C23.5112 17.6901 23.6526 17.6082 23.7726 17.5004C23.8925 17.3926 23.9884 17.2611 24.054 17.1145C24.1196 16.9679 24.1535 16.8093 24.1535 16.6489C24.1535 16.4886 24.1196 16.33 24.054 16.1834C23.9884 16.0367 23.8925 15.9053 23.7726 15.7975C23.6526 15.6896 23.5112 15.6078 23.3574 15.5573C23.2036 15.5067 23.0408 15.4885 22.8794 15.5038C22.5916 15.5312 22.3245 15.6637 22.13 15.8754C21.9356 16.0871 21.8279 16.3629 21.8279 16.6489C21.8279 16.935 21.9356 17.2108 22.13 17.4225C22.3245 17.6342 22.5916 17.7667 22.8794 17.794ZM20.5646 23.5987C20.5646 25.1185 18.239 25.1185 18.239 23.5882C18.239 22.0579 20.5646 22.0579 20.5646 23.5882V23.5987Z" fill="white"/>
</svg>

<svg id="advantages_useful" viewBox="0 0 25 28">
<path d="M24.8438 0.767C24.7434 0.317 24.3647 0 23.9325 0C23.9306 0 23.9288 0 23.9269 0C18.9891 0.033 6.98156 0.916 2.13375 8.38C-0.384376 12.258 -0.600938 17.293 1.48969 23.345C1.50562 23.392 1.53844 23.424 1.56 23.467C0.812812 25.44 0.523125 26.753 0.515624 26.79C0.406875 27.33 0.730312 27.862 1.23656 27.978C1.30219 27.993 1.36781 28 1.43344 28C1.86562 28 2.25469 27.679 2.34937 27.21C2.36906 27.108 4.75781 16.837 13.2028 10.832C13.6341 10.526 13.7503 9.905 13.4625 9.445C13.1747 8.985 12.5934 8.86 12.1622 9.168C7.37344 12.573 4.42406 17.176 2.68969 20.824C1.44844 16.246 1.77375 12.447 3.67594 9.519C7.41937 3.755 16.2984 2.365 21.6581 2.071C20.505 3.872 19.245 7.174 19.245 13C19.245 16.12 18.4153 18.522 16.7803 20.14C14.1591 22.731 9.90094 22.974 6.78656 22.724C6.26906 22.679 5.82 23.095 5.78062 23.646C5.74125 24.196 6.12844 24.676 6.64406 24.718C7.2675 24.769 7.93313 24.8 8.625 24.8C11.7956 24.8 15.4941 24.137 18.0544 21.606C20.0888 19.595 21.12 16.7 21.12 13.001C21.12 3.902 24.3356 1.905 24.3516 1.896C24.7416 1.687 24.9459 1.219 24.8438 0.767Z" fill="white"/>
</svg>

<svg id="slider_button_vector" viewBox="0 0 24 18">
<path d="M8 0L0 9L8 18V0Z" fill="#666666"/>
<path d="M24 9L16 0V18L24 9Z" fill="#666666"/>
</svg>

<svg id="academy_footer_logo" viewBox="0 0 27 34">
<path d="M13.6426 0.0157537L13.5 0L0 1.40733V26.0129L13.5 34L27 26.0129V1.40733L13.6426 0.0157537ZM25.2344 25.0151L13.5 31.9573L1.76561 25.0151V14.9293L13.4507 21.8451L13.4701 23.0984L5.45351 18.3548L5.44295 19.5801L13.4894 24.3885L13.5088 25.675L5.46408 20.9174L5.45351 22.1427L13.5 26.9511L21.6239 22.1182V20.8929V16.909L25.2432 14.7595L25.2344 25.0151ZM25.2344 13.4519L22.0147 15.3319L20.5325 16.2071L13.4666 12.0201L13.456 13.2454L19.4957 16.818L19.4429 16.8495L19.3126 16.9247L18.4536 17.4166L13.4666 14.4689L13.456 15.6942L17.3921 18.0222L16.4591 18.6314L16.438 18.6436L13.4666 16.902L13.456 18.1273L15.4029 19.2615L13.4155 20.4483L1.7973 13.5762L13.4349 6.61831L25.2344 13.4519ZM25.2344 12.2266L13.4401 5.31075L1.76561 12.2196V2.9897L13.5 1.76442L25.2344 2.9897V12.2266Z" fill="#666666"/>
</svg>

<svg id="icon_email" viewBox="0 0 19 14">
<line x1="0.65" y1="6" x2="0.65" y2="14" stroke="#222222" stroke-width="1.3"/>
<line x1="17.65" y1="6" x2="17.65" y2="14" stroke="#222222" stroke-width="1.3"/>
<line y1="13.35" x2="18" y2="13.35" stroke="#222222" stroke-width="1.3"/>
<line y1="1.35" x2="18" y2="1.35" stroke="#222222" stroke-width="1.3"/>
<path d="M17.35 3.1821L9.00002 9.67654L0.65 3.18209V1.65H3.5L9.00002 1.65H14H17.35V3.1821Z" stroke="#222222" stroke-width="1.3" fill="none"/>
</svg>

<svg id="icon_phone" viewBox="0 0 16 16">
<path d="M7 8H15.5M15.5 8L13 5.5M15.5 8L13 10.5M5.5 0.5V5.5H2.5V10.5H5.5V15.5H3C1.5 15.5 0.5 14.5 0.5 13V3C0.5 1.5 1.5 0.5 3 0.5H5.5Z" fill="none" stroke="black" stroke-linecap="round" stroke-linejoin="round"/>
</svg>

<svg id="checkbox" viewBox="0 0 19 15">
<path d="M7 11.718L1.3 5.26951L0.25 6.45739L7 14.0938L18.25 1.36648L17.2 0.09375L7 11.718Z" fill="#68B738"/>
</svg>

<svg id="catalog_plus" viewBox="0 0 30 30">
<line x1="15" x2="15" y2="30" stroke="#D3D3D3" stroke-width="2"/>
<line x1="30" y1="15" y2="15" stroke="#D3D3D3" stroke-width="2"/>
</svg>

<svg id="icon_gift" viewBox="0 0 78 81">
<path d="M64.0156 35.6325H14.031C12.2766 35.6325 10.8494 34.2144 10.8494 32.4709V22.9989C10.8494 21.2554 12.2766 19.8367 14.031 19.8367H64.0149C65.7687 19.8367 67.1953 21.2554 67.1953 22.9989V32.4715C67.1959 34.2144 65.7693 35.6325 64.0156 35.6325ZM14.031 22.2598C13.6276 22.2598 13.2869 22.5984 13.2869 22.9989V32.4715C13.2869 32.8786 13.6208 33.21 14.031 33.21H64.0149C64.4244 33.21 64.7578 32.8786 64.7578 32.4715V22.9989C64.7578 22.5978 64.4171 22.2598 64.0149 22.2598H14.031Z" fill="white"/>
<path d="M57.0447 68.0821H20.999C17.6218 68.0821 14.8741 65.3512 14.8741 61.9933V34.421C14.8741 33.7523 15.4201 33.2095 16.0929 33.2095C16.7656 33.2095 17.3116 33.7523 17.3116 34.421V61.9933C17.3116 64.0148 18.9661 65.6589 20.999 65.6589H57.0447C59.077 65.6589 60.7308 64.0148 60.7308 61.9933V34.421C60.7308 33.7523 61.2768 33.2095 61.9496 33.2095C62.6223 33.2095 63.1683 33.7523 63.1683 34.421V61.9933C63.1683 65.3512 60.4213 68.0821 57.0447 68.0821Z" fill="white"/>
<path d="M39.0225 68.0821C38.3498 68.0821 37.8038 67.5399 37.8038 66.8705V34.421C37.8038 33.7523 38.3498 33.2095 39.0225 33.2095C39.6953 33.2095 40.2413 33.7523 40.2413 34.421V66.8699C40.2413 67.5399 39.6959 68.0821 39.0225 68.0821Z" fill="white"/>
<path d="M23.8113 22.2556C19.9966 20.2008 18.5731 15.4442 20.6383 11.6513C22.7022 7.86033 27.4864 6.44461 31.303 8.4958C37.117 11.6265 40.2565 20.3607 40.3869 20.7308L38.0877 21.5347C38.0585 21.4523 35.1256 13.31 30.1433 10.627C27.5078 9.21063 24.2062 10.1884 22.7821 12.8047C21.3567 15.4236 22.339 18.7069 24.9734 20.1251L23.8113 22.2556Z" fill="white"/>
<path d="M54.2313 22.2556L53.071 20.1244C54.3477 19.4369 55.2782 18.2974 55.6926 16.9156C56.1063 15.5332 55.9534 14.0732 55.2617 12.8053C54.5719 11.5362 53.4263 10.6118 52.0363 10.2005C50.6457 9.78913 49.1783 9.94058 47.9023 10.6269C42.9201 13.3093 39.9871 21.4517 39.9579 21.5341L37.6587 20.7302C37.7891 20.3601 40.928 11.6259 46.7421 8.49578C48.5897 7.50109 50.7182 7.28179 52.7316 7.87788C54.7468 8.47337 56.4061 9.81397 57.4061 11.6513C58.4073 13.4881 58.6285 15.6029 58.0289 17.6062C57.4287 19.6089 56.0801 21.2597 54.2313 22.2556Z" fill="white"/>
<path d="M61.9496 51.8567H16.0929C15.4201 51.8567 14.8741 51.3142 14.8741 50.6456C14.8741 49.9771 15.4201 49.4346 16.0929 49.4346H61.9496C62.6223 49.4346 63.1683 49.9771 63.1683 50.6456C63.1683 51.3142 62.6229 51.8567 61.9496 51.8567Z" fill="white"/>
</svg>

</svg>
