<svg version="1.0" xmlns="http://www.w3.org/2000/svg" width="256" height="256" viewBox="0 0 192 192"><path d="M54.3 64.9c-5.1 1.3-8.3 3.9-10.4 8.4C42.3 76.9 42 80 42 95.6c0 16.9.1 18.4 2.3 22.4 3 5.8 7.4 8 15.7 8 11.2 0 16.9-6 17-17.8V103H65v4.4c0 7.9-2.3 11.1-6.9 9.9-3.5-.9-4.3-6.3-3.9-24.7.3-15.2.5-16.9 2.2-18.2 4.6-3.3 8.6.2 8.6 7.6v5h12v-5.2c0-6.3-3.1-13.3-6.9-15.2-3.4-1.8-11.8-2.7-15.8-1.7zM92.5 67.2c-.2.7-2.7 13-5.5 27.3s-5.4 27-5.7 28.2c-.5 2.2-.2 2.3 5.5 2.3h6l.6-3.8c1.7-9.8 1.3-9.2 6.6-9.2 4.9 0 4.9 0 5.5 3.7 1.7 10.1 1 9.3 7.4 9.3h5.8l-4.8-24.3c-2.7-13.3-5.4-26.6-6-29.5l-1-5.2h-7c-4.7 0-7.1.4-7.4 1.2zm9.1 24c.7 4 1.3 8.5 1.3 10 .1 2.6-.2 2.8-3.5 2.8-2.5 0-3.5-.4-3.1-1.3.3-.7 1.1-5.4 1.8-10.5.7-5 1.5-9 1.7-8.7.3.3 1.1 3.7 1.8 7.7zM117.2 70.2l.3 4.3 4.8.3 4.7.3V125h13V75h9v-9h-32.1l.3 4.2z"/></svg>