<svg version="1.0" xmlns="http://www.w3.org/2000/svg" width="682.667" height="682.667" viewBox="0 0 512 512"><path d="M142.8 173.6c-12.3 2.9-19.3 8.3-24.6 19-6.7 13.4-6.7 13.4-6.7 61.9v44l2.7 7.5c7.1 20.1 16.1 27.5 36.6 30.3 10.8 1.4 25.2-.3 33.2-3.9 14.3-6.5 21-20.7 21-44.7V276H173.3l-.6 12.7c-.7 19.7-3.6 24.9-13.8 24.7-6.5-.1-9.9-2.6-12.1-9-1.6-4.4-1.7-9.6-1.5-51.9.2-51.2.1-50.6 6-54.9 6.1-4.5 16.2-2 19.6 5 1 1.9 1.6 7.5 1.9 16.1l.5 13.3H205v-12.9c0-15.5-1.9-22.7-8.3-32.3-3.5-5.3-5.3-6.8-10.7-9.6-3.6-1.8-8.9-3.7-11.9-4.2-7.6-1.4-24.5-1.1-31.3.6zM231.7 253.2c-8.6 43.1-15.7 78.6-15.7 79.1 0 .4 7.1.6 15.7.5l15.7-.3 3.1-17 3-17 12.4-.3c6.9-.1 12.8.1 13.3.6.4.4 2 8.3 3.5 17.5l2.6 16.7h15.4c11.7 0 15.3-.3 15.3-1.3 0-.7-7-36.1-15.5-78.7S285 175.4 285 175.3c0-.2-8.4-.3-18.8-.3h-18.7l-15.8 78.2zm39.8-5.9c2.5 15.8 4.5 29.5 4.5 30.2 0 1.2-1.9 1.5-9.5 1.5-8.7 0-9.5-.2-9.5-1.9 0-1.1 2-14.9 4.5-30.8 2.5-15.8 4.5-29 4.6-29.3.2-1.6 1.3 4.3 5.4 30.3zM313 187v12h26v134h33V199h25v-24h-84v12z"/></svg>